<?xml version="1.0" encoding="UTF-8" standalone="no"?>
<!-- Created with Inkscape (http://www.inkscape.org/) -->

<svg
   xmlns:dc="http://purl.org/dc/elements/1.1/"
   xmlns:cc="http://creativecommons.org/ns#"
   xmlns:rdf="http://www.w3.org/1999/02/22-rdf-syntax-ns#"
   xmlns:svg="http://www.w3.org/2000/svg"
   xmlns="http://www.w3.org/2000/svg"
   xmlns:sodipodi="http://sodipodi.sourceforge.net/DTD/sodipodi-0.dtd"
   xmlns:inkscape="http://www.inkscape.org/namespaces/inkscape"
   version="1.1"
   id="svg2"
   xml:space="preserve"
   width="378.95999"
   height="378.95065"
   viewBox="0 0 378.95999 378.95065"
   sodipodi:docname="linkedin.svg"
   inkscape:version="0.92.4 (5da689c313, 2019-01-14)"><metadata
     id="metadata8"><rdf:RDF><cc:Work
         rdf:about=""><dc:format>image/svg+xml</dc:format><dc:type
           rdf:resource="http://purl.org/dc/dcmitype/StillImage" /><dc:title></dc:title></cc:Work></rdf:RDF></metadata><defs
     id="defs6"><clipPath
       clipPathUnits="userSpaceOnUse"
       id="clipPath18"><path
         d="M 0,1162.2 H 2551.18 V 0 H 0 Z"
         id="path16"
         inkscape:connector-curvature="0" /></clipPath><clipPath
       clipPathUnits="userSpaceOnUse"
       id="clipPath42"><path
         d="m 1958.01,939.774 h 53.88 v -31.407 h -53.88 z"
         id="path40"
         inkscape:connector-curvature="0" /></clipPath><linearGradient
       x1="0"
       y1="0"
       x2="1"
       y2="0"
       gradientUnits="userSpaceOnUse"
       gradientTransform="matrix(111.97211,307.64081,307.64081,-111.97211,870.84052,758.11206)"
       spreadMethod="pad"
       id="linearGradient78"><stop
         style="stop-opacity:1;stop-color:#f9ad0c"
         offset="0"
         id="stop64" /><stop
         style="stop-opacity:1;stop-color:#f9ad0c"
         offset="0.0181986"
         id="stop66" /><stop
         style="stop-opacity:1;stop-color:#f9ad0c"
         offset="0.10231092"
         id="stop68" /><stop
         style="stop-opacity:1;stop-color:#ed192d"
         offset="0.44898"
         id="stop70" /><stop
         style="stop-opacity:1;stop-color:#d21292"
         offset="0.780933"
         id="stop72" /><stop
         style="stop-opacity:1;stop-color:#6b2288"
         offset="0.944882"
         id="stop74" /><stop
         style="stop-opacity:1;stop-color:#6b2288"
         offset="1"
         id="stop76" /></linearGradient><clipPath
       clipPathUnits="userSpaceOnUse"
       id="clipPath88"><path
         d="M 0,1162.2 H 2551.18 V 0 H 0 Z"
         id="path86"
         inkscape:connector-curvature="0" /></clipPath><clipPath
       clipPathUnits="userSpaceOnUse"
       id="clipPath224"><path
         d="m 1958.01,594.828 h 53.88 v -31.407 h -53.88 z"
         id="path222"
         inkscape:connector-curvature="0" /></clipPath></defs><sodipodi:namedview
     pagecolor="#ffffff"
     bordercolor="#666666"
     borderopacity="1"
     objecttolerance="10"
     gridtolerance="10"
     guidetolerance="10"
     inkscape:pageopacity="0"
     inkscape:pageshadow="2"
     inkscape:window-width="3200"
     inkscape:window-height="1644"
     id="namedview4"
     showgrid="false"
     fit-margin-top="0"
     fit-margin-left="0"
     fit-margin-right="0"
     fit-margin-bottom="0"
     inkscape:zoom="0.60918948"
     inkscape:cx="-993.58987"
     inkscape:cy="554.63474"
     inkscape:window-x="-16"
     inkscape:window-y="-16"
     inkscape:window-maximized="1"
     inkscape:current-layer="g258" /><g
     id="g10"
     inkscape:groupmode="layer"
     inkscape:label="AdobeStock_287245871_Editorial_Use_Only"
     transform="matrix(1.3333333,0,0,-1.3333333,-2909.2197,945.45691)"><g
       id="g12"><g
         id="g14"
         clip-path="url(#clipPath18)"><g
           id="g20"
           transform="translate(721.772,826.6619)"><path
             d="m 0,0 c 0,-30.033 -24.348,-54.385 -54.386,-54.385 h -170.543 c -30.035,0 -54.385,24.352 -54.385,54.385 v 170.541 c 0,30.036 24.35,54.385 54.385,54.385 H -54.386 C -24.348,224.926 0,200.577 0,170.541 Z"
             style="fill:#3bb7ed;fill-opacity:1;fill-rule:nonzero;stroke:none"
             id="path22"
             inkscape:connector-curvature="0" /></g><g
           id="g24"
           transform="translate(687.6455,971.4305)"><path
             d="m 0,0 c -7.422,-3.162 -15.373,-5.261 -23.701,-6.127 8.556,4.957 15.189,12.912 18.402,22.473 -8.013,-4.606 -16.854,-7.893 -26.24,-9.596 -7.372,8.087 -17.988,13.237 -29.816,13.408 -22.688,0.328 -41.352,-17.803 -41.681,-40.491 -0.043,-3.225 0.268,-6.365 0.929,-9.382 -34.124,2.203 -64.172,19.002 -84.08,44.164 -3.625,-6.019 -5.75,-13.058 -5.856,-20.577 -0.207,-14.259 6.865,-26.947 17.782,-34.474 -6.736,0.314 -13.048,2.246 -18.54,5.41 -0.01,-0.171 -0.011,-0.345 -0.015,-0.514 -0.289,-19.913 13.645,-36.723 32.379,-40.77 -3.454,-0.889 -7.091,-1.339 -10.842,-1.28 -2.644,0.037 -5.211,0.328 -7.719,0.842 4.991,-16.401 19.999,-28.505 37.975,-29.095 -14.225,-10.813 -32.036,-17.133 -51.296,-16.854 -3.312,0.047 -6.588,0.297 -9.788,0.72 18.009,-11.926 39.515,-19.037 62.718,-19.376 75.589,-1.095 117.831,60.913 118.62,115.223 0.024,1.781 0.012,3.557 -0.053,5.313 C -12.698,-15.301 -5.632,-8.163 0,0"
             style="fill:#ffffff;fill-opacity:1;fill-rule:nonzero;stroke:none"
             id="path26"
             inkscape:connector-curvature="0" /></g><g
           id="g28"
           transform="translate(2116.5801,826.6609)"><path
             d="m 0,0 c 0,-30.036 -24.348,-54.386 -54.385,-54.386 h -170.541 c -30.038,0 -54.386,24.35 -54.386,54.386 v 170.543 c 0,30.037 24.348,54.385 54.386,54.385 H -54.385 C -24.348,224.928 0,200.58 0,170.543 Z"
             style="fill:#ed1c24;fill-opacity:1;fill-rule:nonzero;stroke:none"
             id="path30"
             inkscape:connector-curvature="0" /></g><g
           id="g32"
           transform="translate(1958.0439,883.8099)"><path
             d="M 0,0 V 56.245 L 53.889,28.117 Z M 87.985,99.819 H -47.471 c -25.898,0 -36.417,-20.988 -36.417,-46.895 V 3.326 c 0,-25.904 11.622,-46.901 37.527,-46.901 H 86.894 c 25.89,0 34.75,20.997 34.75,46.901 v 49.598 c 0,25.907 -7.754,46.895 -33.659,46.895"
             style="fill:#ffffff;fill-opacity:1;fill-rule:nonzero;stroke:none"
             id="path34"
             inkscape:connector-curvature="0" /></g><g
           id="g36"><g
             id="g38" /><g
             id="g50"><g
               clip-path="url(#clipPath42)"
               id="g48"
               style="opacity:0.30000299"><g
                 transform="translate(1958.0068,939.7191)"
                 id="g46"><path
                   d="M 0,0 46.867,-31.352 53.888,-27.7 4.164,-1.751 0,0.055 Z"
                   style="fill:#1d1c1a;fill-opacity:1;fill-rule:nonzero;stroke:none"
                   id="path44"
                   inkscape:connector-curvature="0" /></g></g></g></g></g></g><g
       id="g52"><g
         id="g54"><g
           id="g60"><g
             id="g62"><path
               d="m 841.556,1051.588 c -30.037,0 -54.385,-24.35 -54.385,-54.385 v 0 -170.541 c 0,-30.032 24.348,-54.386 54.385,-54.386 v 0 h 170.541 c 30.037,0 54.386,24.354 54.386,54.386 v 0 170.541 c 0,30.035 -24.349,54.385 -54.386,54.385 v 0 z"
               style="fill:url(#linearGradient78);stroke:none"
               id="path80"
               inkscape:connector-curvature="0" /></g></g></g></g><g
       id="g82"><g
         id="g84"
         clip-path="url(#clipPath88)"><g
           id="g90"
           transform="translate(1010.3545,865.4232)"><path
             d="m 0,0 c 0,-22.064 -17.887,-39.951 -39.953,-39.951 h -90.21 c -22.065,0 -39.951,17.887 -39.951,39.951 v 90.206 c 0,22.065 17.886,39.952 39.951,39.952 h 90.21 C -17.887,130.158 0,112.271 0,90.206 Z m -40.984,149.879 h -88.146 c -33.24,0 -60.187,-26.947 -60.187,-60.186 V 1.55 c 0,-33.239 26.947,-60.186 60.187,-60.186 h 88.146 c 33.241,0 60.187,26.947 60.187,60.186 v 88.143 c 0,33.239 -26.946,60.186 -60.187,60.186"
             style="fill:#ffffff;fill-opacity:1;fill-rule:nonzero;stroke:none"
             id="path92"
             inkscape:connector-curvature="0" /></g><g
           id="g94"
           transform="translate(925.2964,875.4573)"><path
             d="M 0,0 C -19.37,0 -35.071,15.701 -35.071,35.069 -35.071,54.437 -19.37,70.14 0,70.14 19.37,70.14 35.073,54.437 35.073,35.069 35.073,15.701 19.37,0 0,0 m 0,89.171 c -29.878,0 -54.103,-24.223 -54.103,-54.102 0,-29.878 24.225,-54.1 54.103,-54.1 29.884,0 54.106,24.222 54.106,54.1 0,29.879 -24.222,54.102 -54.106,54.102"
             style="fill:#ffffff;fill-opacity:1;fill-rule:nonzero;stroke:none"
             id="path96"
             inkscape:connector-curvature="0" /></g><g
           id="g98"
           transform="translate(981.2065,979.2903)"><path
             d="m 0,0 c -6.961,0 -12.605,-5.643 -12.605,-12.603 0,-6.964 5.644,-12.605 12.605,-12.605 6.958,0 12.601,5.641 12.601,12.605 C 12.601,-5.643 6.958,0 0,0"
             style="fill:#ffffff;fill-opacity:1;fill-rule:nonzero;stroke:none"
             id="path100"
             inkscape:connector-curvature="0" /></g><g
           id="g102"
           transform="translate(372.0337,828.3001)"><path
             d="m 0,0 c 0,-32.245 -26.133,-58.377 -58.375,-58.377 h -167.463 c -32.246,0 -58.386,26.132 -58.386,58.377 v 167.456 c 0,32.249 26.14,58.381 58.386,58.381 H -58.375 C -26.133,225.837 0,199.705 0,167.456 Z"
             style="fill:#476bbd;fill-opacity:1;fill-rule:nonzero;stroke:none"
             id="path104"
             inkscape:connector-curvature="0" /></g><g
           id="g106"
           transform="translate(298.4204,876.2054)"><path
             d="m 0,0 5.354,41.492 h -41.099 v 26.496 c 0,12.014 3.359,20.202 20.576,20.202 l 21.958,0.011 v 37.116 c -3.787,0.502 -16.821,1.635 -32.006,1.635 -31.69,0 -53.373,-19.338 -53.373,-54.859 V 41.492 h -35.842 V 0 h 35.842 v -106.479 h 42.845 V 0 Z"
             style="fill:#ffffff;fill-opacity:1;fill-rule:nonzero;stroke:none"
             id="path108"
             inkscape:connector-curvature="0" /></g><g
           id="g110"
           transform="translate(2466.1348,828.2015)"><path
             d="m 0,0 c 0,-32.243 -26.134,-58.375 -58.377,-58.375 h -167.456 c -32.246,0 -58.387,26.132 -58.387,58.375 v 167.456 c 0,32.249 26.141,58.381 58.387,58.381 H -58.377 C -26.134,225.837 0,199.705 0,167.456 Z"
             style="fill:#257cc2;fill-opacity:1;fill-rule:nonzero;stroke:none"
             id="path112"
             inkscape:connector-curvature="0" /></g><g
           id="g114"
           transform="translate(2248.3145,1019.1326)"><path
             d="M 0,0 C 13.203,0 23.937,-10.741 23.937,-23.969 23.937,-37.19 13.203,-47.903 0,-47.903 c -13.239,0 -23.942,10.713 -23.942,23.934 C -23.942,-10.741 -13.239,0 0,0 m -20.663,-66.071 h 41.318 v -132.915 h -41.318 z"
             style="fill:#ffffff;fill-opacity:1;fill-rule:nonzero;stroke:none"
             id="path116"
             inkscape:connector-curvature="0" /></g><g
           id="g118"
           transform="translate(2294.876,953.0618)"><path
             d="m 0,0 h 39.63 v -18.183 h 0.568 c 5.511,10.461 18.989,21.465 39.081,21.465 41.836,0 49.559,-27.519 49.559,-63.297 v -72.9 H 87.542 v 64.636 c 0,15.414 -0.266,35.25 -21.475,35.25 -21.489,0 -24.772,-16.809 -24.772,-34.144 v -65.742 H 0 Z"
             style="fill:#ffffff;fill-opacity:1;fill-rule:nonzero;stroke:none"
             id="path120"
             inkscape:connector-curvature="0" /></g><g
           id="g122"
           transform="translate(1771.1826,828.202)"><path
             d="m 0,0 c 0,-32.245 -26.134,-58.377 -58.376,-58.377 h -167.462 c -32.247,0 -58.387,26.132 -58.387,58.377 v 167.456 c 0,32.249 26.14,58.381 58.387,58.381 H -58.376 C -26.134,225.837 0,199.705 0,167.456 Z"
             style="fill:#16aa49;fill-opacity:1;fill-rule:nonzero;stroke:none"
             id="path124"
             inkscape:connector-curvature="0" /></g><g
           id="g126"
           transform="translate(1701.6494,842.1751)"><path
             d="m 0,0 c 0.18,2.457 -0.738,4.773 -2.761,6.966 l -28.107,29.224 -0.173,0.048 c -0.968,1.019 -2.437,1.804 -4.414,2.354 -2.787,0.776 -5.485,0.523 -8.095,-0.751 l -12.748,-7.345 c -0.296,-0.167 -0.73,-0.264 -1.3,-0.294 -0.571,-0.029 -0.974,-0.012 -1.206,0.053 l -2.053,1.042 c -1.376,0.694 -3.232,2.116 -5.574,4.27 -2.343,2.156 -5.136,5.28 -8.377,9.373 -3.244,4.094 -6.735,9.539 -10.473,16.342 -3.89,6.711 -6.733,12.479 -8.523,17.294 -1.788,4.816 -2.994,8.814 -3.61,11.987 -0.754,3.59 -1.024,6.672 -0.81,9.238 0.098,0.35 0.305,0.763 0.624,1.236 0.322,0.476 0.63,0.796 0.926,0.963 l 10.915,6.164 c 1.932,1.088 3.437,2.677 4.515,4.754 1.08,2.079 1.353,4.19 0.825,6.341 l -8.805,40.567 c -0.457,1.503 -1.147,2.85 -2.066,4.044 -0.92,1.198 -2.134,2.004 -3.644,2.423 -2.094,0.583 -4.176,0.286 -6.256,-0.889 l -29.625,-16.726 c -1.455,-0.726 -2.822,-1.813 -4.103,-3.275 -2.102,-2.428 -3.398,-5.908 -4.096,-7.963 -0.698,-2.063 -1.266,-5.002 -1.7,-8.821 -0.438,-3.823 -0.549,-8.488 -0.327,-13.994 0.222,-5.505 1.093,-11.818 2.616,-18.94 1.526,-7.122 3.942,-15.086 7.248,-23.892 3.309,-8.805 7.912,-18.349 13.816,-28.627 7.347,-13.182 14.73,-24.003 22.142,-32.447 7.414,-8.445 14.281,-15.144 20.605,-20.094 6.318,-4.949 11.843,-8.494 16.571,-10.621 4.727,-2.129 10.505,-4.275 13.762,-4.86 1.597,-0.287 3.494,-0.157 5.402,0.189 1.912,0.34 3.55,0.95 4.923,1.822 L -4.38,-6.29 C -1.857,-4.866 -0.396,-2.77 0,0"
             style="fill:#ffffff;fill-opacity:1;fill-rule:nonzero;stroke:none"
             id="path128"
             inkscape:connector-curvature="0" /></g><g
           id="g130"
           transform="translate(1420.0381,828.202)"><path
             d="m 0,0 c 0,-32.245 -26.134,-58.377 -58.376,-58.377 h -167.462 c -32.246,0 -58.386,26.132 -58.386,58.377 v 167.456 c 0,32.249 26.14,58.381 58.386,58.381 H -58.376 C -26.134,225.837 0,199.705 0,167.456 Z"
             style="fill:#eb531c;fill-opacity:1;fill-rule:nonzero;stroke:none"
             id="path132"
             inkscape:connector-curvature="0" /></g><g
           id="g134"
           transform="translate(1277.9258,899.8968)"><path
             d="m 0,0 92.329,74.315 c -1.904,1.477 -4.22,2.372 -6.731,2.372 H -85.598 c -2.512,0 -4.827,-0.895 -6.732,-2.372 z"
             style="fill:#ffffff;fill-opacity:1;fill-rule:nonzero;stroke:none"
             id="path136"
             inkscape:connector-curvature="0" /></g><g
           id="g138"
           transform="translate(1374.7568,856.8123)"><path
             d="M 0,0 C 0.222,0.962 0.373,1.953 0.373,2.986 V 105.702 L -54.918,61.2 Z"
             style="fill:#ffffff;fill-opacity:1;fill-rule:nonzero;stroke:none"
             id="path140"
             inkscape:connector-curvature="0" /></g><g
           id="g142"
           transform="translate(1310.3389,910.366)"><path
             d="M 0,0 -32.413,-26.089 -64.827,0 -121.006,-62.606 c 0.962,-0.281 1.954,-0.479 2.996,-0.479 H 53.185 c 1.041,0 2.034,0.198 2.995,0.479 z"
             style="fill:#ffffff;fill-opacity:1;fill-rule:nonzero;stroke:none"
             id="path144"
             inkscape:connector-curvature="0" /></g><g
           id="g146"
           transform="translate(1236.0117,918.012)"><path
             d="M 0,0 -55.29,44.502 V -58.213 c 0,-1.034 0.152,-2.024 0.373,-2.987 z"
             style="fill:#ffffff;fill-opacity:1;fill-rule:nonzero;stroke:none"
             id="path148"
             inkscape:connector-curvature="0" /></g><g
           id="g150"
           transform="translate(683.168,290.4227)"><path
             d="m 0,0 c -7.421,-3.162 -15.373,-5.261 -23.701,-6.128 8.556,4.957 15.19,12.912 18.402,22.473 -8.012,-4.606 -16.854,-7.893 -26.239,-9.595 -7.373,8.087 -17.989,13.236 -29.817,13.407 -22.688,0.328 -41.352,-17.803 -41.68,-40.491 -0.043,-3.224 0.267,-6.364 0.929,-9.382 -34.125,2.203 -64.172,19.002 -84.081,44.165 -3.625,-6.019 -5.75,-13.058 -5.856,-20.578 -0.207,-14.259 6.865,-26.946 17.782,-34.474 -6.735,0.314 -13.047,2.247 -18.539,5.41 -0.01,-0.17 -0.012,-0.344 -0.016,-0.513 -0.289,-19.913 13.646,-36.724 32.38,-40.77 -3.454,-0.889 -7.091,-1.339 -10.843,-1.281 -2.643,0.038 -5.21,0.329 -7.719,0.842 4.991,-16.401 20,-28.505 37.975,-29.095 -14.224,-10.812 -32.036,-17.133 -51.295,-16.853 -3.313,0.047 -6.588,0.297 -9.788,0.719 18.008,-11.925 39.514,-19.037 62.718,-19.376 75.588,-1.095 117.831,60.914 118.62,115.223 0.023,1.782 0.012,3.558 -0.053,5.314 C -12.697,-15.302 -5.631,-8.163 0,0"
             style="fill:#302f2d;fill-opacity:1;fill-rule:nonzero;stroke:none"
             id="path152"
             inkscape:connector-curvature="0" /></g><g
           id="g154"
           transform="translate(1958.0469,201.6141)"><path
             d="M 0,0 V 56.245 L 53.888,28.118 Z M 87.984,99.819 H -47.472 c -25.898,0 -36.416,-20.988 -36.416,-46.894 V 3.327 c 0,-25.904 11.621,-46.901 37.526,-46.901 H 86.893 c 25.89,0 34.751,20.997 34.751,46.901 v 49.598 c 0,25.906 -7.755,46.894 -33.66,46.894"
             style="fill:#302f2d;fill-opacity:1;fill-rule:nonzero;stroke:none"
             id="path156"
             inkscape:connector-curvature="0" /></g><g
           id="g158"
           transform="translate(1011.8838,184.115)"><path
             d="m 0,0 c 0,-22.064 -17.887,-39.951 -39.953,-39.951 h -90.21 c -22.065,0 -39.951,17.887 -39.951,39.951 v 90.206 c 0,22.066 17.886,39.952 39.951,39.952 h 90.21 C -17.887,130.158 0,112.272 0,90.206 Z m -40.984,149.88 h -88.146 c -33.24,0 -60.187,-26.947 -60.187,-60.187 V 1.551 c 0,-33.24 26.947,-60.187 60.187,-60.187 h 88.146 c 33.241,0 60.187,26.947 60.187,60.187 v 88.142 c 0,33.24 -26.946,60.187 -60.187,60.187"
             style="fill:#302f2d;fill-opacity:1;fill-rule:nonzero;stroke:none"
             id="path160"
             inkscape:connector-curvature="0" /></g><g
           id="g162"
           transform="translate(926.8257,194.1492)"><path
             d="M 0,0 C -19.37,0 -35.071,15.701 -35.071,35.069 -35.071,54.437 -19.37,70.14 0,70.14 19.37,70.14 35.073,54.437 35.073,35.069 35.073,15.701 19.37,0 0,0 m 0,89.172 c -29.878,0 -54.103,-24.224 -54.103,-54.103 0,-29.878 24.225,-54.1 54.103,-54.1 29.884,0 54.106,24.222 54.106,54.1 0,29.879 -24.222,54.103 -54.106,54.103"
             style="fill:#302f2d;fill-opacity:1;fill-rule:nonzero;stroke:none"
             id="path164"
             inkscape:connector-curvature="0" /></g><g
           id="g166"
           transform="translate(982.7358,297.9822)"><path
             d="m 0,0 c -6.961,0 -12.605,-5.643 -12.605,-12.603 0,-6.963 5.644,-12.605 12.605,-12.605 6.958,0 12.601,5.642 12.601,12.605 C 12.601,-5.643 6.958,0 0,0"
             style="fill:#302f2d;fill-opacity:1;fill-rule:nonzero;stroke:none"
             id="path168"
             inkscape:connector-curvature="0" /></g><g
           id="g170"
           transform="translate(275.041,218.3387)"><path
             d="m 0,0 4.488,34.783 h -34.453 v 22.212 c 0,10.071 2.816,16.936 17.248,16.936 L 5.691,73.94 v 31.115 c -3.174,0.421 -14.101,1.37 -26.831,1.37 -26.566,0 -44.743,-16.211 -44.743,-45.988 V 34.783 H -95.93 V 0 h 30.047 v -83.629 h 35.918 V 0 Z"
             style="fill:#302f2d;fill-opacity:1;fill-rule:nonzero;stroke:none"
             id="path172"
             inkscape:connector-curvature="0" /></g><g
           id="g174"
           transform="translate(2257.0342,329.2703)"><path
             d="m 0,0 c 11.68,0 21.175,-9.501 21.175,-21.203 0,-11.695 -9.495,-21.173 -21.175,-21.173 -11.712,0 -21.181,9.478 -21.181,21.173 C -21.181,-9.501 -11.712,0 0,0 m -18.279,-58.447 h 36.551 v -117.579 h -36.551 z"
             style="fill:#302f2d;fill-opacity:1;fill-rule:nonzero;stroke:none"
             id="path176"
             inkscape:connector-curvature="0" /></g><g
           id="g178"
           transform="translate(2298.2236,270.8231)"><path
             d="m 0,0 h 35.058 v -16.086 h 0.503 c 4.875,9.255 16.796,18.989 34.571,18.989 37.009,0 43.841,-24.343 43.841,-55.994 v -64.488 H 77.441 v 57.178 c 0,13.634 -0.235,31.182 -18.997,31.182 -19.009,0 -21.914,-14.869 -21.914,-30.204 v -58.156 H 0 Z"
             style="fill:#302f2d;fill-opacity:1;fill-rule:nonzero;stroke:none"
             id="path180"
             inkscape:connector-curvature="0" /></g><g
           id="g182"
           transform="translate(1699.6348,158.9529)"><path
             d="m 0,0 c 0.18,2.457 -0.738,4.772 -2.761,6.966 l -28.106,29.223 -0.173,0.048 c -0.968,1.019 -2.438,1.805 -4.415,2.355 -2.787,0.775 -5.484,0.522 -8.094,-0.751 l -12.748,-7.346 c -0.297,-0.167 -0.731,-0.264 -1.301,-0.294 -0.571,-0.029 -0.973,-0.012 -1.206,0.053 l -2.052,1.043 c -1.376,0.693 -3.232,2.115 -5.574,4.269 -2.343,2.157 -5.136,5.281 -8.378,9.373 -3.243,4.094 -6.735,9.539 -10.472,16.342 -3.891,6.711 -6.733,12.479 -8.524,17.294 -1.787,4.816 -2.994,8.814 -3.609,11.988 -0.755,3.589 -1.025,6.671 -0.811,9.237 0.098,0.35 0.305,0.763 0.625,1.236 0.321,0.476 0.629,0.796 0.925,0.963 l 10.916,6.164 c 1.932,1.089 3.437,2.678 4.514,4.754 1.08,2.079 1.353,4.19 0.826,6.341 l -8.806,40.567 c -0.456,1.503 -1.146,2.851 -2.065,4.044 -0.921,1.198 -2.135,2.004 -3.644,2.424 -2.095,0.583 -4.176,0.285 -6.257,-0.89 l -29.625,-16.726 c -1.454,-0.726 -2.821,-1.812 -4.103,-3.275 -2.102,-2.428 -3.398,-5.908 -4.095,-7.963 -0.699,-2.062 -1.266,-5.001 -1.701,-8.821 -0.438,-3.823 -0.548,-8.487 -0.326,-13.993 0.221,-5.506 1.093,-11.819 2.616,-18.94 1.525,-7.122 3.941,-15.086 7.248,-23.892 3.308,-8.806 7.911,-18.35 13.815,-28.627 7.348,-13.183 14.73,-24.004 22.143,-32.448 7.414,-8.445 14.28,-15.144 20.605,-20.094 6.318,-4.949 11.843,-8.494 16.571,-10.62 4.727,-2.13 10.504,-4.275 13.761,-4.86 1.597,-0.288 3.494,-0.158 5.403,0.188 1.911,0.341 3.55,0.95 4.923,1.822 L -4.38,-6.291 C -1.857,-4.866 -0.396,-2.771 0,0"
             style="fill:#302f2d;fill-opacity:1;fill-rule:nonzero;stroke:none"
             id="path184"
             inkscape:connector-curvature="0" /></g><g
           id="g186"
           transform="translate(1277.9258,217.701)"><path
             d="m 0,0 92.329,74.315 c -1.904,1.478 -4.22,2.373 -6.731,2.373 H -85.598 c -2.512,0 -4.827,-0.895 -6.732,-2.373 z"
             style="fill:#302f2d;fill-opacity:1;fill-rule:nonzero;stroke:none"
             id="path188"
             inkscape:connector-curvature="0" /></g><g
           id="g190"
           transform="translate(1374.7568,174.617)"><path
             d="M 0,0 C 0.222,0.963 0.373,1.952 0.373,2.986 V 105.702 L -54.918,61.2 Z"
             style="fill:#302f2d;fill-opacity:1;fill-rule:nonzero;stroke:none"
             id="path192"
             inkscape:connector-curvature="0" /></g><g
           id="g194"
           transform="translate(1310.3389,228.1707)"><path
             d="M 0,0 -32.413,-26.09 -64.827,0 -121.006,-62.606 c 0.962,-0.281 1.954,-0.48 2.996,-0.48 H 53.185 c 1.041,0 2.034,0.199 2.995,0.48 z"
             style="fill:#302f2d;fill-opacity:1;fill-rule:nonzero;stroke:none"
             id="path196"
             inkscape:connector-curvature="0" /></g><g
           id="g198"
           transform="translate(1236.0117,235.8172)"><path
             d="M 0,0 -55.29,44.502 V -58.214 c 0,-1.034 0.152,-2.023 0.373,-2.986 z"
             style="fill:#302f2d;fill-opacity:1;fill-rule:nonzero;stroke:none"
             id="path200"
             inkscape:connector-curvature="0" /></g><g
           id="g202"
           transform="translate(721.772,481.7166)"><path
             d="m 0,0 c 0,-30.033 -24.348,-54.386 -54.386,-54.386 h -170.543 c -30.035,0 -54.385,24.353 -54.385,54.386 v 170.54 c 0,30.036 24.35,54.385 54.385,54.385 H -54.386 C -24.348,224.925 0,200.576 0,170.54 Z"
             style="fill:#302f2d;fill-opacity:1;fill-rule:nonzero;stroke:none"
             id="path204"
             inkscape:connector-curvature="0" /></g><g
           id="g206"
           transform="translate(687.6455,626.4847)"><path
             d="m 0,0 c -7.422,-3.162 -15.373,-5.261 -23.701,-6.127 8.556,4.957 15.189,12.912 18.402,22.473 -8.013,-4.606 -16.854,-7.893 -26.24,-9.596 -7.372,8.087 -17.988,13.237 -29.816,13.408 -22.688,0.328 -41.352,-17.803 -41.681,-40.491 -0.043,-3.225 0.268,-6.365 0.929,-9.382 -34.124,2.203 -64.172,19.002 -84.08,44.164 -3.625,-6.019 -5.75,-13.058 -5.856,-20.577 -0.207,-14.259 6.865,-26.947 17.782,-34.474 -6.736,0.314 -13.048,2.246 -18.54,5.41 -0.01,-0.171 -0.011,-0.345 -0.015,-0.514 -0.289,-19.913 13.645,-36.723 32.379,-40.77 -3.454,-0.889 -7.091,-1.339 -10.842,-1.28 -2.644,0.038 -5.211,0.329 -7.719,0.841 4.991,-16.401 19.999,-28.504 37.975,-29.094 -14.225,-10.813 -32.036,-17.133 -51.296,-16.854 -3.312,0.047 -6.588,0.297 -9.788,0.72 18.009,-11.927 39.515,-19.037 62.718,-19.376 75.589,-1.096 117.831,60.913 118.62,115.223 0.024,1.781 0.012,3.557 -0.053,5.313 C -12.698,-15.302 -5.632,-8.163 0,0"
             style="fill:#ffffff;fill-opacity:1;fill-rule:nonzero;stroke:none"
             id="path208"
             inkscape:connector-curvature="0" /></g><g
           id="g210"
           transform="translate(2116.5801,481.7147)"><path
             d="m 0,0 c 0,-30.035 -24.348,-54.386 -54.385,-54.386 h -170.541 c -30.038,0 -54.386,24.351 -54.386,54.386 v 170.543 c 0,30.038 24.348,54.386 54.386,54.386 H -54.385 C -24.348,224.929 0,200.581 0,170.543 Z"
             style="fill:#302f2d;fill-opacity:1;fill-rule:nonzero;stroke:none"
             id="path212"
             inkscape:connector-curvature="0" /></g><g
           id="g214"
           transform="translate(1958.0439,538.8641)"><path
             d="M 0,0 V 56.245 L 53.889,28.117 Z M 87.985,99.819 H -47.471 c -25.898,0 -36.417,-20.988 -36.417,-46.895 V 3.326 c 0,-25.904 11.622,-46.9 37.527,-46.9 H 86.894 c 25.89,0 34.75,20.996 34.75,46.9 v 49.598 c 0,25.907 -7.754,46.895 -33.659,46.895"
             style="fill:#ffffff;fill-opacity:1;fill-rule:nonzero;stroke:none"
             id="path216"
             inkscape:connector-curvature="0" /></g><g
           id="g218"><g
             id="g220" /><g
             id="g232"><g
               clip-path="url(#clipPath224)"
               id="g230"
               style="opacity:0.30000299"><g
                 transform="translate(1958.0068,594.7733)"
                 id="g228"><path
                   d="M 0,0 46.867,-31.353 53.888,-27.7 4.164,-1.751 0,0.055 Z"
                   style="fill:#1d1c1a;fill-opacity:1;fill-rule:nonzero;stroke:none"
                   id="path226"
                   inkscape:connector-curvature="0" /></g></g></g></g><g
           id="g234"
           transform="translate(1066.4829,481.7166)"><path
             d="m 0,0 c 0,-30.033 -24.349,-54.386 -54.386,-54.386 h -170.541 c -30.037,0 -54.385,24.353 -54.385,54.386 v 170.54 c 0,30.036 24.348,54.385 54.385,54.385 H -54.386 C -24.349,224.925 0,200.576 0,170.54 Z"
             style="fill:#302f2d;fill-opacity:1;fill-rule:nonzero;stroke:none"
             id="path236"
             inkscape:connector-curvature="0" /></g><g
           id="g238"
           transform="translate(1010.3545,520.4774)"><path
             d="m 0,0 c 0,-22.064 -17.887,-39.951 -39.953,-39.951 h -90.21 c -22.065,0 -39.951,17.887 -39.951,39.951 v 90.206 c 0,22.065 17.886,39.952 39.951,39.952 h 90.21 C -17.887,130.158 0,112.271 0,90.206 Z m -40.984,149.879 h -88.146 c -33.24,0 -60.187,-26.947 -60.187,-60.187 V 1.55 c 0,-33.239 26.947,-60.186 60.187,-60.186 h 88.146 c 33.241,0 60.187,26.947 60.187,60.186 v 88.142 c 0,33.24 -26.946,60.187 -60.187,60.187"
             style="fill:#ffffff;fill-opacity:1;fill-rule:nonzero;stroke:none"
             id="path240"
             inkscape:connector-curvature="0" /></g><g
           id="g242"
           transform="translate(925.2964,530.5115)"><path
             d="M 0,0 C -19.37,0 -35.071,15.701 -35.071,35.069 -35.071,54.437 -19.37,70.14 0,70.14 19.37,70.14 35.073,54.437 35.073,35.069 35.073,15.701 19.37,0 0,0 m 0,89.171 c -29.878,0 -54.103,-24.223 -54.103,-54.102 0,-29.878 24.225,-54.1 54.103,-54.1 29.884,0 54.106,24.222 54.106,54.1 0,29.879 -24.222,54.102 -54.106,54.102"
             style="fill:#ffffff;fill-opacity:1;fill-rule:nonzero;stroke:none"
             id="path244"
             inkscape:connector-curvature="0" /></g><g
           id="g246"
           transform="translate(981.2065,634.3445)"><path
             d="m 0,0 c -6.961,0 -12.605,-5.643 -12.605,-12.603 0,-6.964 5.644,-12.605 12.605,-12.605 6.958,0 12.601,5.641 12.601,12.605 C 12.601,-5.643 6.958,0 0,0"
             style="fill:#ffffff;fill-opacity:1;fill-rule:nonzero;stroke:none"
             id="path248"
             inkscape:connector-curvature="0" /></g><g
           id="g250"
           transform="translate(372.0337,483.3543)"><path
             d="m 0,0 c 0,-32.245 -26.133,-58.377 -58.375,-58.377 h -167.463 c -32.246,0 -58.386,26.132 -58.386,58.377 v 167.456 c 0,32.249 26.14,58.381 58.386,58.381 H -58.375 C -26.133,225.837 0,199.705 0,167.456 Z"
             style="fill:#302f2d;fill-opacity:1;fill-rule:nonzero;stroke:none"
             id="path252"
             inkscape:connector-curvature="0" /></g><g
           id="g254"
           transform="translate(298.4204,531.2596)"><path
             d="m 0,0 5.354,41.492 h -41.099 v 26.496 c 0,12.013 3.359,20.202 20.576,20.202 l 21.958,0.011 v 37.116 c -3.787,0.502 -16.821,1.635 -32.006,1.635 -31.69,0 -53.373,-19.338 -53.373,-54.859 V 41.492 h -35.842 V 0 h 35.842 v -106.479 h 42.845 V 0 Z"
             style="fill:#ffffff;fill-opacity:1;fill-rule:nonzero;stroke:none"
             id="path256"
             inkscape:connector-curvature="0" /></g><g
           id="g258"
           transform="translate(2466.1348,483.2557)"><path
             d="m 0,0 c 0,-32.243 -26.134,-58.376 -58.377,-58.376 h -167.456 c -32.246,0 -58.387,26.133 -58.387,58.376 v 167.456 c 0,32.249 26.141,58.381 58.387,58.381 H -58.377 C -26.134,225.837 0,199.705 0,167.456 Z"
             style="fill:#302f2d;fill-opacity:1;fill-rule:nonzero;stroke:none"
             id="path260"
             inkscape:connector-curvature="0" /></g><g
           id="g262"
           transform="translate(2248.3145,674.1868)"><path
             d="M 0,0 C 13.203,0 23.937,-10.741 23.937,-23.969 23.937,-37.19 13.203,-47.903 0,-47.903 c -13.239,0 -23.942,10.713 -23.942,23.934 C -23.942,-10.741 -13.239,0 0,0 m -20.663,-66.071 h 41.318 v -132.914 h -41.318 z"
             style="fill:#ffffff;fill-opacity:1;fill-rule:nonzero;stroke:none"
             id="path264"
             inkscape:connector-curvature="0" /></g><g
           id="g266"
           transform="translate(2294.876,608.116)"><path
             d="m 0,0 h 39.63 v -18.183 h 0.568 c 5.511,10.461 18.989,21.465 39.081,21.465 41.836,0 49.559,-27.519 49.559,-63.298 v -72.898 H 87.542 v 64.636 c 0,15.413 -0.266,35.249 -21.475,35.249 -21.489,0 -24.772,-16.809 -24.772,-34.144 v -65.741 H 0 Z"
             style="fill:#ffffff;fill-opacity:1;fill-rule:nonzero;stroke:none"
             id="path268"
             inkscape:connector-curvature="0" /></g><g
           id="g270"
           transform="translate(1771.1826,483.2567)"><path
             d="m 0,0 c 0,-32.245 -26.134,-58.378 -58.376,-58.378 h -167.462 c -32.247,0 -58.387,26.133 -58.387,58.378 v 167.455 c 0,32.25 26.14,58.382 58.387,58.382 H -58.376 C -26.134,225.837 0,199.705 0,167.455 Z"
             style="fill:#302f2d;fill-opacity:1;fill-rule:nonzero;stroke:none"
             id="path272"
             inkscape:connector-curvature="0" /></g><g
           id="g274"
           transform="translate(1701.6494,497.2293)"><path
             d="m 0,0 c 0.18,2.457 -0.738,4.773 -2.761,6.966 l -28.107,29.223 -0.173,0.049 c -0.968,1.019 -2.437,1.804 -4.414,2.355 -2.787,0.775 -5.485,0.522 -8.095,-0.751 l -12.748,-7.347 c -0.296,-0.167 -0.73,-0.264 -1.3,-0.293 -0.571,-0.029 -0.974,-0.012 -1.206,0.053 l -2.053,1.042 c -1.376,0.694 -3.232,2.115 -5.574,4.27 -2.343,2.156 -5.136,5.281 -8.377,9.372 -3.244,4.095 -6.735,9.54 -10.473,16.343 -3.89,6.711 -6.733,12.479 -8.523,17.294 -1.788,4.816 -2.994,8.814 -3.61,11.987 -0.754,3.59 -1.024,6.672 -0.81,9.238 0.098,0.35 0.305,0.763 0.624,1.236 0.322,0.476 0.63,0.796 0.926,0.963 l 10.915,6.164 c 1.932,1.088 3.437,2.677 4.515,4.754 1.08,2.079 1.353,4.19 0.825,6.341 l -8.805,40.567 c -0.457,1.503 -1.147,2.85 -2.066,4.044 -0.92,1.198 -2.134,2.004 -3.644,2.423 -2.094,0.583 -4.176,0.286 -6.256,-0.889 l -29.625,-16.726 c -1.455,-0.726 -2.822,-1.813 -4.103,-3.275 -2.102,-2.429 -3.398,-5.908 -4.096,-7.963 -0.698,-2.063 -1.266,-5.002 -1.7,-8.821 -0.438,-3.823 -0.549,-8.488 -0.327,-13.994 0.222,-5.505 1.093,-11.818 2.616,-18.94 1.526,-7.122 3.942,-15.086 7.248,-23.892 3.309,-8.806 7.912,-18.35 13.816,-28.627 7.347,-13.182 14.73,-24.003 22.142,-32.447 7.414,-8.446 14.281,-15.144 20.605,-20.094 6.318,-4.949 11.843,-8.494 16.571,-10.62 4.727,-2.131 10.505,-4.276 13.762,-4.861 1.597,-0.288 3.494,-0.157 5.402,0.189 1.912,0.341 3.55,0.949 4.923,1.821 L -4.38,-6.29 C -1.857,-4.866 -0.396,-2.77 0,0"
             style="fill:#ffffff;fill-opacity:1;fill-rule:nonzero;stroke:none"
             id="path276"
             inkscape:connector-curvature="0" /></g><g
           id="g278"
           transform="translate(1420.0381,483.2567)"><path
             d="m 0,0 c 0,-32.245 -26.134,-58.378 -58.376,-58.378 h -167.462 c -32.246,0 -58.386,26.133 -58.386,58.378 v 167.455 c 0,32.25 26.14,58.382 58.386,58.382 H -58.376 C -26.134,225.837 0,199.705 0,167.455 Z"
             style="fill:#302f2d;fill-opacity:1;fill-rule:nonzero;stroke:none"
             id="path280"
             inkscape:connector-curvature="0" /></g><g
           id="g282"
           transform="translate(1277.9258,554.951)"><path
             d="m 0,0 92.329,74.315 c -1.904,1.477 -4.22,2.372 -6.731,2.372 H -85.598 c -2.512,0 -4.827,-0.895 -6.732,-2.372 z"
             style="fill:#ffffff;fill-opacity:1;fill-rule:nonzero;stroke:none"
             id="path284"
             inkscape:connector-curvature="0" /></g><g
           id="g286"
           transform="translate(1374.7568,511.867)"><path
             d="M 0,0 C 0.222,0.962 0.373,1.952 0.373,2.986 V 105.702 L -54.918,61.199 Z"
             style="fill:#ffffff;fill-opacity:1;fill-rule:nonzero;stroke:none"
             id="path288"
             inkscape:connector-curvature="0" /></g><g
           id="g290"
           transform="translate(1310.3389,565.4197)"><path
             d="M 0,0 -32.413,-26.089 -64.827,0 -121.006,-62.605 c 0.962,-0.282 1.954,-0.48 2.996,-0.48 H 53.185 c 1.041,0 2.034,0.198 2.995,0.48 z"
             style="fill:#ffffff;fill-opacity:1;fill-rule:nonzero;stroke:none"
             id="path292"
             inkscape:connector-curvature="0" /></g><g
           id="g294"
           transform="translate(1236.0117,573.0662)"><path
             d="M 0,0 -55.29,44.502 V -58.213 c 0,-1.034 0.152,-2.024 0.373,-2.986 z"
             style="fill:#ffffff;fill-opacity:1;fill-rule:nonzero;stroke:none"
             id="path296"
             inkscape:connector-curvature="0" /></g></g></g></g></svg>