<?xml version="1.0" encoding="UTF-8" standalone="no"?> <svg id="Capa_1" enable-background="new 0 0 512 512" height="512" viewBox="0 0 512 512" width="512" xmlns="http://www.w3.org/2000/svg"><path d="m144.789 277.138-8.789-17.593-8.789 17.593c-2.183 4.365-6.357 7.397-11.177 8.13l-19.468 2.93 14.019 13.799c3.472 3.413 5.068 8.32 4.263 13.14l-3.223 19.409 17.461-9.067c2.168-1.128 4.541-1.685 6.914-1.685s4.746.557 6.914 1.685l17.461 9.067-3.223-19.409c-.806-4.819.791-9.727 4.263-13.14l14.019-13.799-19.468-2.93c-4.82-.733-8.994-3.765-11.177-8.13z"/><path d="m384.789 277.138-8.789-17.593-8.789 17.593c-2.183 4.365-6.357 7.397-11.177 8.13l-19.468 2.93 14.019 13.799c3.472 3.413 5.068 8.32 4.263 13.14l-3.223 19.409 17.461-9.067c2.168-1.128 4.541-1.685 6.914-1.685s4.746.557 6.914 1.685l17.461 9.067-3.223-19.409c-.806-4.819.791-9.727 4.263-13.14l14.019-13.799-19.468-2.93c-4.82-.733-8.994-3.765-11.177-8.13z"/><path d="m466 121h-125.387l3.864 23.291c2.827 16.904-4.043 33.691-17.944 43.784-14.046 10.247-32.347 11.21-47.139 3.56l-23.394-12.144-23.364 12.129c-14.788 7.63-33.115 6.727-47.227-3.589-13.843-10.049-20.713-26.836-17.886-43.77l3.864-23.261h-125.387c-24.814 0-46 20.186-46 45v240c0 24.814 21.186 45 46 45h164.18l33.105 53.954c2.739 4.38 7.544 7.046 12.715 7.046s9.976-2.666 12.715-7.046l33.105-53.954h164.18c24.814 0 46-20.186 46-45v-240c0-24.814-21.186-45-46-45zm-248.145 167.52-29.839 29.37 6.87 41.323c.938 5.61-1.377 11.25-5.977 14.59-4.492 3.281-10.576 3.851-15.732 1.187l-37.177-19.293-37.178 19.292c-5.054 2.607-11.177 2.153-15.732-1.187-4.6-3.34-6.914-8.979-5.977-14.59l6.87-41.323-29.839-29.37c-4.043-3.999-5.493-9.932-3.735-15.322 1.758-5.405 6.416-9.36 12.026-10.21l41.426-6.226 18.721-37.471c5.068-10.166 21.768-10.166 26.836 0l18.721 37.471 41.426 6.226c5.61.85 10.269 4.805 12.026 10.21 1.758 5.391.307 11.324-3.736 15.323zm240 0-29.839 29.37 6.87 41.323c.938 5.61-1.377 11.25-5.977 14.59-4.492 3.281-10.576 3.851-15.732 1.187l-37.177-19.293-37.178 19.292c-5.054 2.607-11.177 2.153-15.732-1.187-4.6-3.34-6.914-8.979-5.977-14.59l6.87-41.323-29.839-29.37c-4.043-3.999-5.493-9.932-3.735-15.322 1.758-5.405 6.416-9.36 12.026-10.21l41.426-6.226 18.721-37.471c5.068-10.166 21.768-10.166 26.836 0l18.721 37.471 41.426 6.226c5.61.85 10.269 4.805 12.026 10.21 1.758 5.391.307 11.324-3.736 15.323z"/><path d="m341.576 63.183c-1.758-5.391-6.416-9.346-12.026-10.195l-41.411-6.226-18.721-39.137c-5.098-10.166-21.738-10.166-26.836 0l-18.721 39.137-41.411 6.226c-5.61.85-10.269 4.805-12.026 10.195-1.758 5.405-.308 11.338 3.735 15.322l29.824 29.385-6.87 41.323c-.938 5.61 1.377 11.25 5.977 14.59 4.556 3.325 10.679 3.794 15.732 1.187l37.178-19.293 37.178 19.292c5.156 2.664 11.241 2.095 15.732-1.187 4.6-3.34 6.914-8.979 5.977-14.59l-6.87-41.323 29.824-29.385c4.043-3.983 5.493-9.916 3.735-15.321z"/></svg>